<?xml version="1.0" ?>
<svg height="32" id="icon" viewBox="0 0 32 32" width="32" xmlns="http://www.w3.org/2000/svg">
    <defs>
        <style>
            .cls-1 {
            fill: none;
            }
        </style>
    </defs>
    <circle cx="20" cy="8" r="1"/>
    <circle cx="23" cy="8" r="1"/>
    <circle cx="26" cy="8" r="1"/>
    <path d="M28,4H4A2.0023,2.0023,0,0,0,2,6V26a2.0023,2.0023,0,0,0,2,2H28a2.0023,2.0023,0,0,0,2-2V6A2.0023,2.0023,0,0,0,28,4Zm0,2v4H4V6ZM4,12h6V26H4Zm8,14V12H28V26Z"
          transform="translate(0 0)"/>
    <rect class="cls-1" data-name="&lt;Transparent Rectangle&gt;" height="32" id="_Transparent_Rectangle_" width="32"/>
</svg>